<?xml version="1.0" encoding="UTF-8"?>
<svg width="120" height="40" viewBox="0 0 120 40" fill="none" xmlns="http://www.w3.org/2000/svg">
  <path d="M20 8C13.3726 8 8 13.3726 8 20C8 26.6274 13.3726 32 20 32C26.6274 32 32 26.6274 32 20C32 13.3726 26.6274 8 20 8ZM23.5 25H16.5V15H23.5V25Z" fill="#F27C22"/>
  <path d="M45 16.5V23.5H42V16.5H45ZM55 16.5V23.5H52V16.5H55ZM65 16.5L60 23.5H57.5L62.5 16.5H65Z" fill="#000000"/>
  <path d="M75 16.5V23.5H72V16.5H75ZM85 16.5V23.5H82V16.5H85ZM95 16.5V23.5H92V16.5H95Z" fill="#000000"/>
  <path d="M105 16.5V23.5H102V16.5H105Z" fill="#000000"/>
</svg>